<svg width="19" height="18" viewBox="0 0 19 18" xmlns="http://www.w3.org/2000/svg" xmlns:xlink="http://www.w3.org/1999/xlink"><title>3D621BF3-AAC2-4B5D-9387-43FAC0D7C929</title><defs><path id="a" d="M18.472 9.082v8.862H0V.22h18.472v8.862z"/></defs><g fill="none" fill-rule="evenodd"><g transform="translate(0 -.164)"><mask id="b" fill="#fff"><use xlink:href="#a"/></mask><path d="M16.361 14.605a.901.901 0 0 1-.898.898H3.009a.901.901 0 0 1-.898-.898V5.739h14.25v8.866zm.22-12.758h-2.078v-1.1a.53.53 0 0 0-.527-.527h-1.123a.53.53 0 0 0-.527.528v1.1H5.86v-1.1A.53.53 0 0 0 5.333.22H4.212a.53.53 0 0 0-.528.528v1.1H1.892A1.894 1.894 0 0 0 0 3.738v12.314c0 1.04.85 1.892 1.892 1.892H16.58c1.04 0 1.891-.852 1.891-1.892V3.74c0-1.04-.85-1.892-1.891-1.892z" fill="#1ABDD3" mask="url(#b)"/></g><path d="M4.09 9.556h10.204a.53.53 0 0 0 .528-.528V7.907a.53.53 0 0 0-.528-.53H4.09a.53.53 0 0 0-.527.53v1.12a.53.53 0 0 0 .527.529m0 3.584h10.204a.53.53 0 0 0 .528-.528v-1.12a.53.53 0 0 0-.528-.53H4.09a.53.53 0 0 0-.527.53v1.12c0 .29.237.528.527.528" fill="#1ABDD3"/></g></svg>